<?xml version="1.0" encoding="utf-8"?>
<!-- Generator: Adobe Illustrator 24.3.0, SVG Export Plug-In . SVG Version: 6.00 Build 0)  -->
<svg version="1.1" id="Layer_1" xmlns="http://www.w3.org/2000/svg" xmlns:xlink="http://www.w3.org/1999/xlink" x="0px" y="0px"
	 viewBox="0 0 394 400" style="enable-background:new 0 0 394 400;" xml:space="preserve">
<style type="text/css">
	.st0{opacity:0.4;fill:none;stroke:#EE5514;stroke-width:11;enable-background:new    ;}
	.st1{fill:#EE5514;fill-opacity:0.1;}
	.st2{opacity:0.3;}
	.st3{fill-opacity:0.3;}
</style>
<rect x="5.5" y="5.5" class="st0" width="383" height="389"/>
<circle class="st1" cx="16" cy="16" r="5"/>
<circle class="st1" cx="72" cy="16" r="5"/>
<circle class="st1" cx="44" cy="16" r="5"/>
<circle class="st1" cx="100" cy="16" r="5"/>
<circle class="st1" cx="30" cy="16" r="5"/>
<circle class="st1" cx="86" cy="16" r="5"/>
<circle class="st1" cx="58" cy="16" r="5"/>
<circle class="st1" cx="114" cy="16" r="5"/>
<circle class="st1" cx="16" cy="29.2" r="5"/>
<circle class="st1" cx="72" cy="29.2" r="5"/>
<circle class="st1" cx="44" cy="29.2" r="5"/>
<circle class="st1" cx="100" cy="29.2" r="5"/>
<circle class="st1" cx="30" cy="29.2" r="5"/>
<circle class="st1" cx="86" cy="29.2" r="5"/>
<circle class="st1" cx="58" cy="29.2" r="5"/>
<circle class="st1" cx="114" cy="29.2" r="5"/>
<circle class="st1" cx="16" cy="42.4" r="5"/>
<circle class="st1" cx="72" cy="42.4" r="5"/>
<circle class="st1" cx="44" cy="42.4" r="5"/>
<circle class="st1" cx="100" cy="42.4" r="5"/>
<circle class="st1" cx="30" cy="42.4" r="5"/>
<circle class="st1" cx="86" cy="42.4" r="5"/>
<circle class="st1" cx="58" cy="42.4" r="5"/>
<circle class="st1" cx="114" cy="42.4" r="5"/>
<circle class="st1" cx="16.2" cy="55.5" r="5"/>
<circle class="st1" cx="72.2" cy="55.5" r="5"/>
<circle class="st1" cx="44.2" cy="55.5" r="5"/>
<circle class="st1" cx="100.2" cy="55.5" r="5"/>
<circle class="st1" cx="30.2" cy="55.5" r="5"/>
<circle class="st1" cx="86.2" cy="55.5" r="5"/>
<circle class="st1" cx="58.2" cy="55.5" r="5"/>
<circle class="st1" cx="114.2" cy="55.5" r="5"/>
<circle class="st1" cx="16.2" cy="68.7" r="5"/>
<circle class="st1" cx="72.2" cy="68.7" r="5"/>
<circle class="st1" cx="44.2" cy="68.7" r="5"/>
<circle class="st1" cx="100.2" cy="68.7" r="5"/>
<circle class="st1" cx="30.2" cy="68.7" r="5"/>
<circle class="st1" cx="86.2" cy="68.7" r="5"/>
<circle class="st1" cx="58.2" cy="68.7" r="5"/>
<circle class="st1" cx="114.2" cy="68.7" r="5"/>
<circle class="st1" cx="16.2" cy="81.9" r="5"/>
<circle class="st1" cx="72.2" cy="81.9" r="5"/>
<circle class="st1" cx="44.2" cy="81.9" r="5"/>
<circle class="st1" cx="100.2" cy="81.9" r="5"/>
<circle class="st1" cx="30.2" cy="81.9" r="5"/>
<circle class="st1" cx="86.2" cy="81.9" r="5"/>
<circle class="st1" cx="58.2" cy="81.9" r="5"/>
<circle class="st1" cx="114.2" cy="81.9" r="5"/>
<circle class="st1" cx="16.2" cy="95.1" r="5"/>
<circle class="st1" cx="72.2" cy="95.1" r="5"/>
<circle class="st1" cx="44.2" cy="95.1" r="5"/>
<circle class="st1" cx="100.2" cy="95.1" r="5"/>
<circle class="st1" cx="30.2" cy="95.1" r="5"/>
<circle class="st1" cx="86.2" cy="95.1" r="5"/>
<circle class="st1" cx="58.2" cy="95.1" r="5"/>
<circle class="st1" cx="114.2" cy="95.1" r="5"/>
<circle class="st1" cx="16.2" cy="108.2" r="5"/>
<circle class="st1" cx="72.2" cy="108.2" r="5"/>
<circle class="st1" cx="44.2" cy="108.2" r="5"/>
<circle class="st1" cx="100.2" cy="108.2" r="5"/>
<circle class="st1" cx="30.2" cy="108.2" r="5"/>
<circle class="st1" cx="86.2" cy="108.2" r="5"/>
<circle class="st1" cx="58.2" cy="108.2" r="5"/>
<circle class="st1" cx="114.2" cy="108.2" r="5"/>
<g class="st2">
	<ellipse class="st3" cx="197" cy="355.5" rx="194.5" ry="44.5"/>
</g>
<image style="overflow:visible;" width="598" height="400" xlink:href="SYDBcVgqXO-removebg-preview 1.png"  transform="matrix(1 0 0 1 -114.1765 0)">
</image>
</svg>
